<?xml version="1.0" standalone="no"?>
<!DOCTYPE svg PUBLIC "-//W3C//DTD SVG 20010904//EN"
 "http://www.w3.org/TR/2001/REC-SVG-20010904/DTD/svg10.dtd">
<svg version="1.0" xmlns="http://www.w3.org/2000/svg"
 width="1430.000000pt" height="1422.000000pt" viewBox="0 0 1430.000000 1422.000000"
 preserveAspectRatio="xMidYMid meet">

<g transform="translate(0.000000,1422.000000) scale(0.100000,-0.100000)"
fill="#000000" stroke="none">
<path d="M0 7110 l0 -7110 7150 0 7150 0 0 7110 0 7110 -7150 0 -7150 0 0
-7110z m7278 4178 c5 -7 50 -83 99 -168 49 -85 167 -290 263 -455 95 -165 212
-367 260 -450 48 -82 160 -276 248 -430 88 -154 307 -534 487 -845 1012 -1748
985 -1700 985 -1720 0 -13 -46 -15 -367 -13 -203 2 -373 3 -379 3 -13 0 -13 1
-334 560 -131 228 -268 467 -306 530 -37 63 -133 230 -214 370 -80 140 -266
462 -412 715 -145 253 -279 486 -297 518 -18 31 -36 57 -41 57 -17 0 -33 -26
-393 -650 -72 -124 -165 -286 -207 -360 -42 -74 -124 -216 -182 -315 -57 -99
-144 -250 -193 -335 -48 -85 -122 -212 -163 -283 -41 -70 -72 -133 -69 -141 4
-11 71 -14 367 -14 l362 -1 21 23 c12 13 51 75 86 137 36 63 106 184 157 270
50 85 115 199 145 252 29 54 57 96 63 94 15 -5 376 -637 376 -659 0 -10 -15
-41 -33 -70 -18 -29 -110 -185 -203 -346 -93 -162 -180 -307 -194 -323 l-25
-29 -1135 -1 c-849 -1 -1135 2 -1138 10 -2 7 32 73 76 149 44 75 131 227 195
337 172 301 220 384 332 575 56 96 190 328 298 515 302 526 527 918 609 1058
l76 129 370 -2 c257 0 372 2 377 10 4 6 -75 153 -174 327 -100 174 -181 325
-181 335 0 11 19 52 42 91 77 134 145 252 195 337 28 47 67 115 87 153 39 69
46 76 64 55z m2362 -4862 c36 -10 85 -27 110 -39 43 -21 45 -24 48 -72 5 -72
-8 -215 -19 -215 -6 0 -31 16 -56 35 -85 65 -204 94 -329 80 -56 -6 -72 -12
-105 -42 -35 -32 -39 -40 -39 -83 0 -33 6 -55 21 -74 38 -48 86 -65 269 -96
144 -24 238 -67 302 -139 56 -62 73 -118 72 -231 -2 -144 -53 -240 -164 -312
-83 -54 -108 -64 -199 -83 -132 -27 -301 -7 -461 54 -89 34 -83 21 -81 192 1
84 4 155 7 158 3 3 29 -22 59 -55 92 -104 234 -148 405 -126 130 16 190 67
192 161 1 40 -3 56 -21 75 -34 36 -141 76 -205 76 -59 0 -184 29 -251 59 -62
27 -129 93 -156 154 -21 45 -24 68 -24 162 0 94 3 118 24 162 44 99 171 191
291 214 67 12 236 4 310 -15z m-4417 -3 c4 -2 7 -11 7 -19 0 -8 52 -159 116
-337 63 -177 138 -387 166 -467 27 -80 74 -208 104 -286 30 -77 54 -144 54
-148 0 -3 -64 -5 -142 -4 l-143 3 -37 110 c-21 61 -42 120 -47 132 -10 21 -13
22 -218 20 l-208 -2 -46 -133 c-25 -72 -48 -134 -51 -137 -2 -3 -62 -2 -132 2
-110 5 -127 8 -122 22 3 9 30 88 62 176 172 488 320 910 342 980 14 44 30 86
35 93 9 11 36 12 131 7 67 -4 124 -9 129 -12z m1308 7 c18 0 19 -16 21 -257
l3 -258 96 130 c52 72 135 187 183 258 49 70 92 127 95 128 32 4 272 1 277 -4
3 -3 -29 -50 -73 -104 -43 -54 -123 -159 -177 -233 l-99 -134 197 -394 c109
-216 196 -395 194 -397 -1 -2 -68 -5 -147 -6 l-144 -3 -15 49 c-25 81 -256
525 -267 513 -31 -34 -110 -148 -120 -172 -11 -26 -13 -71 -8 -208 3 -100 2
-177 -3 -180 -5 -2 -61 -2 -124 1 l-115 6 0 637 0 636 104 -4 c57 -2 112 -4
122 -4z m1679 -8 c3 -4 4 -289 2 -634 l-2 -628 -130 0 -130 0 0 638 0 637 127
-3 c71 -2 130 -7 133 -10z m428 -1989 c4 -24 -26 -40 -34 -18 -8 21 3 47 19
43 6 -3 13 -14 15 -25z m1142 3 c0 -13 -21 -92 -67 -256 -13 -44 -24 -66 -36
-68 -23 -5 -22 21 4 111 45 155 50 181 45 204 -6 20 -3 23 24 23 19 0 30 -5
30 -14z m-626 -155 c19 -145 16 -171 -17 -158 -10 4 -17 29 -21 79 -7 71 -16
118 -38 187 -12 39 2 54 36 42 18 -7 23 -25 40 -150z m-3714 141 c0 -4 -4 -12
-10 -18 -10 -10 -42 -138 -66 -271 -3 -18 -11 -23 -35 -23 -28 0 -31 3 -25 23
21 67 66 255 66 275 0 19 5 22 35 22 19 0 35 -4 35 -8z m2111 -12 c-3 -8 -21
-80 -41 -160 -20 -79 -42 -146 -49 -148 -18 -6 -43 19 -35 37 21 51 65 221 63
246 -2 46 -1 46 34 43 23 -2 31 -7 28 -18z m1816 -2 c-3 -13 -10 -39 -16 -58
-5 -19 -21 -80 -34 -135 -22 -94 -25 -100 -50 -103 -31 -4 -32 2 -13 49 7 19
21 76 31 128 22 127 29 141 61 141 22 0 25 -3 21 -22z m-5593 -100 c4 -57 9
-125 12 -151 l6 -48 -32 3 -32 3 -3 142 c-3 125 -2 144 13 152 9 5 20 8 23 5
4 -2 10 -50 13 -106z m1812 101 c3 -6 2 -15 -3 -20 -13 -13 -43 -1 -43 17 0
16 36 19 46 3z m782 -53 c3 -26 6 -28 37 -22 28 6 36 3 46 -15 27 -52 -19
-175 -76 -201 -30 -13 -48 -1 -21 14 23 13 66 104 66 141 0 20 -7 30 -22 36
-13 5 -26 7 -29 5 -3 -1 -18 -35 -33 -74 -19 -48 -26 -81 -22 -101 4 -22 2
-29 -9 -29 -16 0 -18 -7 -15 -57 1 -31 -1 -33 -30 -33 -38 0 -40 -19 20 185
23 77 42 149 44 160 5 28 4 27 24 23 10 -2 18 -14 20 -32z m1697 4 c4 -6 1
-18 -7 -27 -7 -9 -17 -34 -23 -56 -8 -33 -18 -46 -57 -68 l-46 -27 -20 21
c-45 49 -25 127 34 127 28 0 32 -16 5 -23 -18 -4 -33 -48 -22 -65 10 -14 37
-21 51 -12 8 5 15 29 16 56 1 37 7 51 25 65 28 21 35 23 44 9z m-805 -9 c0 -5
-12 -35 -26 -66 -24 -51 -33 -60 -75 -78 -66 -28 -65 -52 4 -66 43 -9 55 -33
34 -65 -23 -35 -46 -34 -44 2 2 24 -2 27 -38 32 -32 4 -41 10 -43 27 -2 13 3
32 12 44 13 19 13 25 1 50 -11 21 -12 34 -4 58 11 32 19 36 99 45 24 2 46 10
48 15 4 13 32 15 32 2z m1028 -4 c8 -9 6 -16 -7 -24 -10 -6 -23 -31 -29 -55
-10 -37 -17 -46 -54 -63 -55 -25 -61 -51 -16 -60 62 -14 72 -37 37 -86 -11
-16 -30 -29 -42 -29 -20 0 -20 1 -3 13 29 21 17 61 -19 68 -16 3 -38 2 -47 -3
-23 -11 -23 3 -2 44 11 21 14 45 11 72 -3 23 0 53 8 73 12 29 18 33 52 33 21
0 49 7 63 14 33 18 36 18 48 3z m-615 -16 c3 -15 11 -18 28 -14 17 3 20 2 10
-5 -7 -5 -19 -32 -27 -58 -32 -118 -54 -158 -76 -136 -8 8 -9 18 -1 34 6 13
16 62 23 111 8 55 18 87 25 87 7 0 15 -9 18 -19z m-3521 -9 c14 -14 38 -16 38
-3 0 13 43 22 54 11 15 -15 -7 -32 -45 -35 -28 -2 -36 -9 -50 -41 -10 -22 -21
-61 -25 -87 -7 -50 -29 -72 -45 -46 -4 8 -6 25 -3 39 14 70 28 111 40 121 16
13 18 29 4 29 -5 0 -10 -7 -10 -15 0 -8 -4 -15 -10 -15 -10 0 -14 42 -5 52 9
8 45 2 57 -10z m302 -19 c-8 -46 -28 -122 -39 -145 -5 -13 -3 -18 10 -18 27 0
11 -25 -18 -28 -37 -5 -43 28 -18 108 27 86 27 100 -4 100 -31 0 -49 -27 -69
-105 -15 -59 -15 -60 6 -77 l23 -16 -29 -8 c-19 -4 -32 -2 -43 9 -23 23 -1
123 38 171 29 34 48 41 117 45 33 1 33 1 26 -36z m162 27 c20 0 18 -13 -16
-123 -21 -65 -36 -97 -45 -97 -18 0 -20 39 -5 90 6 19 11 55 11 80 1 52 6 63
26 56 8 -3 21 -6 29 -6z m466 -41 c-2 -24 -8 -56 -14 -72 -6 -15 -8 -43 -5
-62 6 -38 -3 -50 -33 -40 -31 10 -36 51 -11 102 35 72 26 111 -23 99 -19 -5
-27 -18 -40 -73 -9 -38 -19 -76 -22 -85 -4 -13 0 -18 16 -18 25 0 22 -23 -4
-28 -49 -10 -60 56 -23 140 30 66 41 76 97 80 65 6 65 6 62 -43z m723 41 c4
-6 -1 -34 -11 -63 -9 -28 -18 -74 -19 -102 -2 -46 -4 -50 -28 -53 -25 -3 -27
0 -27 32 0 20 9 59 20 88 28 75 27 92 -7 83 -16 -4 -33 -11 -39 -16 -19 -16
-37 -97 -32 -144 5 -42 4 -45 -18 -45 -49 0 -45 91 8 166 32 45 39 50 84 55
27 3 52 7 56 7 4 1 10 -3 13 -8z m143 -7 c9 -16 13 -16 52 0 37 14 45 14 64 2
19 -13 25 -12 50 0 16 9 38 13 49 9 21 -7 21 5 -1 -169 -6 -42 -11 -51 -30
-53 -33 -5 -37 19 -13 97 20 65 27 111 16 111 -2 0 -14 -5 -27 -11 -18 -8 -30
-32 -52 -105 -23 -74 -33 -94 -48 -94 -23 0 -23 22 2 102 23 74 25 98 7 98
-25 0 -52 -41 -78 -118 -17 -50 -32 -78 -42 -80 -20 -4 -23 28 -6 59 5 11 12
52 14 92 2 40 4 73 4 75 4 9 32 -1 39 -15z m647 -29 c-3 -25 -13 -64 -21 -86
-16 -47 -18 -78 -4 -78 6 0 10 -4 10 -10 0 -5 -14 -10 -31 -10 -31 0 -32 0
-26 43 5 39 25 146 33 175 2 6 13 12 25 12 20 0 21 -3 14 -46z m111 -1 c-4
-27 -9 -78 -13 -115 -6 -75 -18 -84 -61 -48 -21 18 -22 21 -8 42 8 13 24 56
36 96 15 48 27 72 37 72 13 0 14 -9 9 -47z m153 35 c15 -9 31 -9 72 0 32 8 56
9 62 3 10 -10 -8 -112 -25 -145 -8 -14 -7 -17 2 -11 10 6 11 1 6 -21 -10 -39
-20 -47 -46 -39 -19 6 -21 12 -15 43 4 20 13 48 20 62 7 14 16 40 20 58 6 30
5 32 -20 32 -27 0 -45 -30 -89 -152 -16 -43 -33 -58 -48 -43 -2 3 4 37 14 76
11 45 15 86 12 110 -7 42 1 48 35 27z m941 -32 c0 -23 -4 -56 -10 -72 -5 -16
-11 -43 -13 -59 -4 -42 -14 -54 -37 -48 -25 7 -25 29 -1 90 24 62 33 113 21
113 -6 0 -10 5 -10 10 0 6 11 10 25 10 23 0 25 -4 25 -44z m603 26 c11 -12 13
-22 7 -32 -5 -8 -10 -24 -10 -35 0 -34 -48 -140 -64 -143 -21 -4 -21 27 -1 75
8 19 15 59 15 88 0 28 3 55 7 58 11 12 29 8 46 -11z m87 3 c22 -26 -7 -46 -39
-26 -12 8 -12 12 -2 25 17 20 25 20 41 1z m126 1 c3 -7 -4 -50 -15 -94 -12
-44 -21 -90 -21 -101 0 -15 -6 -21 -23 -21 -13 0 -26 2 -29 5 -2 3 4 35 13 72
10 38 18 84 18 104 1 20 4 39 8 42 11 12 43 7 49 -7z m984 -10 c0 -14 -5 -37
-11 -53 -6 -15 -14 -55 -17 -88 -8 -65 -27 -82 -58 -50 -16 15 -16 20 5 69 30
73 41 115 31 121 -5 3 -20 1 -35 -5 -36 -14 -67 -86 -64 -148 3 -41 1 -47 -16
-47 -17 0 -20 8 -23 53 -5 81 43 148 116 162 66 13 72 12 72 -14z m259 15 c19
-12 6 -41 -18 -41 -26 0 -36 17 -21 35 14 17 20 18 39 6z m241 -12 c0 -30 -30
-142 -41 -153 -13 -14 -11 -26 3 -23 6 1 14 -6 16 -15 2 -13 -3 -18 -16 -18
-53 0 -67 33 -37 90 9 16 18 50 22 75 5 40 3 45 -13 45 -33 0 -43 -14 -68 -88
-24 -69 -25 -102 -5 -102 5 0 9 -4 9 -10 0 -15 -46 -12 -60 5 -9 11 -9 26 1
70 16 70 66 132 112 138 72 9 77 8 77 -14z m-6082 -13 c3 -14 0 -18 -14 -13
-63 20 -64 20 -64 2 0 -10 9 -33 21 -51 14 -23 19 -46 17 -76 -3 -41 -4 -43
-39 -46 -19 -2 -47 2 -62 7 -33 13 -37 36 -4 26 64 -20 67 -19 67 12 0 16 -6
37 -14 48 -19 29 -27 90 -13 104 7 7 32 11 57 9 35 -2 46 -7 48 -22z m714 -14
c-2 -36 -39 -150 -55 -169 -29 -37 -45 5 -21 55 10 20 20 63 22 95 4 56 5 58
31 55 23 -3 26 -7 23 -36z m104 1 c-4 -21 -13 -69 -20 -108 -10 -60 -15 -70
-34 -73 -18 -3 -22 1 -22 25 0 15 7 53 15 83 8 30 15 67 15 83 0 22 4 27 26
27 25 0 26 -2 20 -37z m3978 31 c9 -3 16 -12 16 -20 0 -17 -3 -17 -45 0 -33
14 -35 14 -35 -4 0 -11 12 -44 27 -74 25 -51 25 -56 10 -79 -10 -15 -29 -26
-52 -30 -42 -7 -61 -1 -69 20 -10 25 0 27 33 7 28 -17 32 -17 47 -3 14 14 13
20 -10 64 -26 48 -31 79 -20 109 6 16 66 22 98 10z m1496 -9 c17 -21 9 -26
-26 -16 -56 15 -62 -3 -22 -61 20 -29 23 -69 8 -99 -14 -25 -97 -28 -107 -4
-7 21 4 32 19 17 16 -16 47 -15 54 2 3 8 -4 32 -15 55 -20 39 -28 101 -14 114
13 14 90 7 103 -8z m190 0 c19 -23 5 -29 -30 -15 -46 19 -54 2 -25 -52 27 -51
31 -79 15 -109 -14 -25 -107 -28 -117 -4 -9 24 3 29 37 15 48 -20 59 -1 32 55
-22 46 -27 80 -16 109 8 21 87 22 104 1z m234 -7 c-20 -64 -34 -126 -34 -156
0 -36 -21 -52 -45 -32 -21 17 -19 35 10 105 13 33 25 65 25 71 0 15 -26 25
-45 17 -36 -13 -83 -161 -56 -177 21 -13 11 -27 -16 -24 -25 3 -28 8 -31 42
-4 46 11 88 51 139 27 35 31 37 89 37 57 0 59 -1 52 -22z m254 3 c4 -11 -4
-13 -37 -8 -48 6 -47 8 -82 -111 -22 -75 -33 -92 -52 -73 -7 7 -4 34 11 93 11
46 17 84 11 86 -5 2 -9 10 -9 18 0 20 151 15 158 -5z m-1924 -38 c-7 -30 -24
-55 -24 -36 0 17 18 63 25 63 3 0 2 -12 -1 -27z m-3576 -70 c2 -49 6 -63 18
-63 21 0 12 -24 -11 -29 -27 -5 -45 26 -45 78 0 28 -6 51 -17 64 -17 18 -16
18 17 15 l35 -3 3 -62z m4308 36 c13 -14 18 -36 19 -72 0 -47 -2 -52 -23 -55
-21 -3 -22 -1 -20 53 2 38 -2 59 -11 64 -13 9 -7 31 8 31 4 0 16 -9 27 -21z
m-1838 -90 c53 -26 60 -41 39 -85 -21 -44 -41 -45 -32 -3 8 37 -4 49 -52 49
-36 0 -47 11 -38 40 8 26 28 25 83 -1z m1082 -10 c0 -20 -25 -37 -37 -25 -9 9
18 56 29 50 4 -3 8 -14 8 -25z m-5452 4 c-2 -10 -13 -19 -26 -21 -24 -4 -29 7
-10 26 18 18 40 15 36 -5z m3477 -73 c8 -35 0 -50 -24 -50 -26 0 -34 40 -14
62 22 25 30 23 38 -12z m1024 -32 c2 -29 -27 -21 -44 12 -19 37 -19 38 8 42
22 3 34 -14 36 -54z m-217 27 c8 -19 8 -29 0 -37 -23 -23 -61 14 -48 47 9 23
35 18 48 -10z"/>
<path d="M5065 6036 c-28 -67 -115 -361 -110 -373 6 -17 265 -19 265 -3 0 11
-101 334 -119 383 -14 35 -19 34 -36 -7z"/>
<path d="M7120 4290 c-17 -32 -3 -62 27 -58 34 4 52 32 37 56 -16 26 -51 27
-64 2z"/>
<path d="M8162 4298 c-14 -14 -16 -64 -2 -73 13 -8 46 11 54 31 16 41 -22 72
-52 42z"/>
</g>
</svg>
