<svg xmlns="http://www.w3.org/2000/svg" xmlns:xlink="http://www.w3.org/1999/xlink" width="940" zoomAndPan="magnify" viewBox="0 0 705 591.000005" height="788" preserveAspectRatio="xMidYMid meet" version="1.0"><defs><clipPath id="828a0c018f"><path d="M 298.285156 248.171875 L 406.851562 248.171875 L 406.851562 341.765625 L 298.285156 341.765625 Z M 298.285156 248.171875 " clip-rule="nonzero"/></clipPath></defs><g clip-path="url(#828a0c018f)"><path fill="#ffffff" d="M 379.535156 341.828125 L 406.570312 341.828125 L 352.496094 248.171875 L 298.425781 341.828125 L 325.460938 341.828125 C 327.507812 341.828125 329.542969 341.695312 331.574219 341.429688 C 333.601562 341.160156 335.605469 340.761719 337.582031 340.234375 C 339.558594 339.703125 341.492188 339.046875 343.382812 338.265625 C 345.273438 337.480469 347.101562 336.578125 348.875 335.554688 C 350.648438 334.53125 352.34375 333.398438 353.96875 332.152344 C 355.589844 330.90625 357.125 329.558594 358.574219 328.113281 C 360.019531 326.664062 361.367188 325.128906 362.613281 323.507812 C 363.855469 321.882812 364.992188 320.1875 366.015625 318.414062 L 338.980469 318.414062 L 352.496094 295 Z M 379.535156 341.828125 " fill-opacity="1" fill-rule="nonzero"/></g></svg>