<svg xmlns="http://www.w3.org/2000/svg" xmlns:xlink="http://www.w3.org/1999/xlink" width="1920" zoomAndPan="magnify" viewBox="0 0 1440 809.999993" height="1080" preserveAspectRatio="xMidYMid meet" version="1.0"><defs><clipPath id="4d8b856299"><path d="M 493 208.226562 L 947.925781 208.226562 L 947.925781 601.402344 L 493 601.402344 Z M 493 208.226562 " clip-rule="nonzero"/></clipPath></defs><g clip-path="url(#4d8b856299)"><path fill="#040404" d="M 833.699219 601.46875 L 947.214844 601.46875 L 720.179688 208.226562 L 493.140625 601.46875 L 606.65625 601.46875 C 610.949219 601.46875 615.234375 601.328125 619.515625 601.046875 C 623.796875 600.765625 628.066406 600.347656 632.320312 599.785156 C 636.574219 599.226562 640.808594 598.527344 645.015625 597.691406 C 649.226562 596.851562 653.402344 595.878906 657.546875 594.769531 C 661.691406 593.65625 665.796875 592.414062 669.859375 591.035156 C 673.921875 589.65625 677.9375 588.144531 681.902344 586.5 C 685.867188 584.859375 689.773438 583.089844 693.621094 581.191406 C 697.46875 579.292969 701.253906 577.273438 704.96875 575.125 C 708.683594 572.980469 712.328125 570.714844 715.894531 568.332031 C 719.460938 565.945312 722.949219 563.449219 726.351562 560.835938 C 729.757812 558.222656 733.074219 555.503906 736.296875 552.671875 C 739.523438 549.84375 742.65625 546.914062 745.6875 543.878906 C 748.722656 540.84375 751.65625 537.714844 754.484375 534.488281 C 757.3125 531.261719 760.035156 527.945312 762.648438 524.539062 C 765.257812 521.136719 767.757812 517.648438 770.140625 514.082031 C 772.523438 510.511719 774.789062 506.871094 776.933594 503.15625 L 663.421875 503.15625 L 720.175781 404.851562 Z M 833.699219 601.46875 " fill-opacity="1" fill-rule="nonzero"/></g></svg>